<svg width="45" height="45" viewBox="0 0 45 45" fill="none" xmlns="http://www.w3.org/2000/svg">
<rect x="0.121094" y="0.47168" width="44.1652" height="44.1566" rx="10.4799" fill="#283040"/>
<path fill-rule="evenodd" clip-rule="evenodd" d="M14.684 19.9307C13.2642 19.9307 12.0981 21.1119 12.0981 22.5501C12.0981 23.9883 13.2642 25.1696 14.684 25.1696C16.1034 25.1696 17.2698 23.9883 17.2698 22.5501C17.2698 21.1119 16.1034 19.9307 14.684 19.9307ZM29.7235 19.9307C28.3037 19.9307 27.1377 21.1119 27.1377 22.5501C27.1377 23.9883 28.3037 25.1696 29.7235 25.1696C31.1429 25.1696 32.3093 23.9883 32.3093 22.5501C32.3093 21.1119 31.1429 19.9307 29.7235 19.9307ZM22.2037 19.9316C20.7842 19.9316 19.6188 21.1126 19.6188 22.5501C19.6188 23.9878 20.7845 25.1687 22.2037 25.1687C23.623 25.1687 24.7886 23.9878 24.7886 22.5501C24.7886 21.1124 23.623 19.9316 22.2037 19.9316Z" fill="url(#paint0_linear_0_966)"/>
<defs>
<linearGradient id="paint0_linear_0_966" x1="1.99256" y1="22.5501" x2="4.53752" y2="32.3683" gradientUnits="userSpaceOnUse">
<stop stop-color="#3087FB"/>
<stop offset="1" stop-color="#B34EFF"/>
</linearGradient>
</defs>
</svg>
