<svg width="23" height="16" viewBox="0 0 23 16" fill="none" xmlns="http://www.w3.org/2000/svg">
<path fill-rule="evenodd" clip-rule="evenodd" d="M11.0033 0C4.1453 0 0.889 5.87864 0.099 7.55664C-0.033 7.83664 -0.033 8.16141 0.099 8.44141C0.889 10.1204 4.1453 16 11.0033 16C17.8373 16 21.0958 10.1629 21.8998 8.46094C22.0378 8.16794 22.0378 7.83206 21.8998 7.53906C21.0958 5.83706 17.8373 0 11.0033 0ZM11.0033 3C13.7643 3 16.0033 5.239 16.0033 8C16.0033 10.761 13.7643 13 11.0033 13C8.2423 13 6.0033 10.761 6.0033 8C6.0033 5.239 8.2423 3 11.0033 3ZM11.0033 5C9.34644 5 8.0033 6.34315 8.0033 8C8.0033 9.65685 9.34644 11 11.0033 11C12.6602 11 14.0033 9.65685 14.0033 8C14.0033 6.34315 12.6602 5 11.0033 5Z" fill="#5C6C8D"/>
</svg>
