<svg width="41" height="41" viewBox="0 0 41 41" fill="none" xmlns="http://www.w3.org/2000/svg">
<circle cx="20.5" cy="20.5" r="20.5" fill="#5AC128"/>
<path d="M14.85 12.675C15.2167 13.3083 15.625 14.0833 16.075 15C16.525 15.9167 16.9833 16.8833 17.45 17.9C17.9167 18.9 18.375 19.925 18.825 20.975C19.2917 22.0083 19.7167 22.9667 20.1 23.85C20.4833 22.9667 20.9 22.0083 21.35 20.975C21.8 19.925 22.2583 18.9 22.725 17.9C23.1917 16.8833 23.65 15.9167 24.1 15C24.55 14.0833 24.9583 13.3083 25.325 12.675H28.175C28.325 13.9417 28.4667 15.2917 28.6 16.725C28.7333 18.1417 28.85 19.6 28.95 21.1C29.0667 22.5833 29.1667 24.0833 29.25 25.6C29.35 27.1 29.4333 28.5667 29.5 30H26.4C26.3333 27.9833 26.25 25.9083 26.15 23.775C26.0667 21.6417 25.9333 19.575 25.75 17.575C25.5667 17.9583 25.35 18.4167 25.1 18.95C24.85 19.4833 24.5833 20.0667 24.3 20.7C24.0167 21.3167 23.725 21.9583 23.425 22.625C23.1417 23.2917 22.8583 23.9417 22.575 24.575C22.3083 25.1917 22.0583 25.775 21.825 26.325C21.5917 26.8583 21.3917 27.3167 21.225 27.7H18.875C18.7083 27.3167 18.5083 26.85 18.275 26.3C18.0417 25.75 17.7833 25.1667 17.5 24.55C17.2333 23.9167 16.95 23.2667 16.65 22.6C16.3667 21.9333 16.0833 21.2917 15.8 20.675C15.5167 20.0583 15.25 19.4833 15 18.95C14.75 18.4 14.5333 17.9417 14.35 17.575C14.1667 19.575 14.025 21.6417 13.925 23.775C13.8417 25.9083 13.7667 27.9833 13.7 30H10.6C10.6667 28.5667 10.7417 27.0833 10.825 25.55C10.925 24.0167 11.025 22.5 11.125 21C11.2417 19.4833 11.3667 18.0167 11.5 16.6C11.6333 15.1833 11.775 13.875 11.925 12.675H14.85Z" fill="white"/>
</svg>
