<svg width="41" height="41" viewBox="0 0 41 41" fill="none" xmlns="http://www.w3.org/2000/svg">
<circle cx="20.5" cy="20.5" r="20.5" fill="#FF3D29"/>
<path d="M10.325 25.325H12.475C13.225 24.2917 13.8 23.2083 14.2 22.075C14.6167 20.925 14.9167 19.7417 15.1 18.525C15.3 17.2917 15.4167 16.025 15.45 14.725C15.4833 13.4083 15.5 12.0583 15.5 10.675H26.125V25.325H28.7V32.625H25.675V28H13.35V32.625H10.325V25.325ZM18.525 13.375C18.475 14.375 18.4167 15.4 18.35 16.45C18.2833 17.5 18.1583 18.5417 17.975 19.575C17.8083 20.5917 17.5667 21.5917 17.25 22.575C16.9333 23.5417 16.5 24.4583 15.95 25.325H23.025V13.375H18.525Z" fill="white"/>
</svg>
