<svg width="41" height="41" viewBox="0 0 41 41" fill="none" xmlns="http://www.w3.org/2000/svg">
<circle cx="20.5" cy="20.5" r="20.5" fill="#4654D8"/>
<path d="M20.3 30.2C19.3833 30.2 18.4583 30.1667 17.525 30.1C16.5917 30.05 15.775 29.9333 15.075 29.75V12.925C15.4417 12.8583 15.8333 12.8 16.25 12.75C16.6667 12.6833 17.0917 12.6333 17.525 12.6C17.9583 12.5667 18.3833 12.5417 18.8 12.525C19.2333 12.5083 19.6417 12.5 20.025 12.5C21.075 12.5 22.05 12.5833 22.95 12.75C23.85 12.9 24.625 13.1583 25.275 13.525C25.9417 13.8917 26.4583 14.375 26.825 14.975C27.1917 15.575 27.375 16.3167 27.375 17.2C27.375 18.0167 27.175 18.7167 26.775 19.3C26.3917 19.8833 25.85 20.35 25.15 20.7C26.2 21.05 26.975 21.5667 27.475 22.25C27.975 22.9333 28.225 23.8 28.225 24.85C28.225 26.6333 27.575 27.975 26.275 28.875C24.975 29.7583 22.9833 30.2 20.3 30.2ZM18.175 22.2V27.475C18.525 27.5083 18.9 27.5333 19.3 27.55C19.7 27.5667 20.0667 27.575 20.4 27.575C21.05 27.575 21.65 27.5333 22.2 27.45C22.7667 27.3667 23.25 27.225 23.65 27.025C24.0667 26.8083 24.3917 26.525 24.625 26.175C24.875 25.825 25 25.375 25 24.825C25 23.8417 24.6417 23.1583 23.925 22.775C23.2083 22.3917 22.2167 22.2 20.95 22.2H18.175ZM18.175 19.725H20.4C21.6 19.725 22.5417 19.5583 23.225 19.225C23.9083 18.875 24.25 18.2583 24.25 17.375C24.25 16.5417 23.8917 15.95 23.175 15.6C22.475 15.25 21.5583 15.075 20.425 15.075C19.9417 15.075 19.5083 15.0833 19.125 15.1C18.7583 15.1167 18.4417 15.1417 18.175 15.175V19.725Z" fill="white"/>
</svg>
