<svg width="646" height="542" viewBox="0 0 646 542" fill="none" xmlns="http://www.w3.org/2000/svg">
<path fill-rule="evenodd" clip-rule="evenodd" d="M65 340H61V344H65V340ZM87 340H83V344H87V340ZM105 340H109V344H105V340ZM131 340H127V344H131V340ZM150 340H154V344H150V340ZM176 340H172V344H176V340ZM194 340H198V344H194V340ZM61 320H65V324H61V320ZM83 320H87V324H83V320ZM109 320H105V324H109V320ZM127 320H131V324H127V320ZM154 320H150V324H154V320ZM172 320H176V324H172V320ZM198 320H194V324H198V320ZM61 300H65V304H61V300ZM83 300H87V304H83V300ZM109 300H105V304H109V300ZM127 300H131V304H127V300ZM154 300H150V304H154V300ZM172 300H176V304H172V300ZM198 300H194V304H198V300ZM61 280H65V284H61V280ZM83 280H87V284H83V280ZM109 280H105V284H109V280ZM127 280H131V284H127V280ZM154 280H150V284H154V280ZM172 280H176V284H172V280ZM198 280H194V284H198V280ZM61 260H65V264H61V260ZM83 260H87V264H83V260ZM109 260H105V264H109V260ZM127 260H131V264H127V260ZM154 260H150V264H154V260ZM172 260H176V264H172V260ZM198 260H194V264H198V260ZM61 240H65V244H61V240ZM83 240H87V244H83V240ZM109 240H105V244H109V240ZM127 240H131V244H127V240ZM154 240H150V244H154V240ZM172 240H176V244H172V240ZM198 240H194V244H198V240ZM61 220H65V224H61V220ZM83 220H87V224H83V220ZM109 220H105V224H109V220ZM127 220H131V224H127V220ZM154 220H150V224H154V220ZM172 220H176V224H172V220ZM198 220H194V224H198V220ZM61 200H65V204H61V200ZM83 200H87V204H83V200ZM109 200H105V204H109V200ZM127 200H131V204H127V200ZM154 200H150V204H154V200ZM172 200H176V204H172V200ZM198 200H194V204H198V200ZM65 180H61V184H65V180ZM87 180H83V184H87V180ZM105 180H109V184H105V180ZM131 180H127V184H131V180ZM150 180H154V184H150V180ZM176 180H172V184H176V180ZM194 180H198V184H194V180Z" fill="url(#paint0_linear_101_20)"/>
<g filter="url(#filter0_d_101_20)">
<rect x="113" y="43" width="420" height="442" rx="23" fill="#283040"/>
</g>
<mask id="mask0_101_20" style="mask-type:alpha" maskUnits="userSpaceOnUse" x="113" y="43" width="420" height="442">
<rect x="113" y="43" width="420" height="442" rx="23" fill="white"/>
</mask>
<g mask="url(#mask0_101_20)">
<path fill-rule="evenodd" clip-rule="evenodd" d="M323.5 426C350.838 426 373 403.838 373 376.5C373 349.162 350.838 327 323.5 327C296.162 327 274 349.162 274 376.5C274 376.659 274.001 376.818 274.002 376.976C280.595 377.018 289.221 377.507 289.221 377.507C293.788 377.507 295.258 374.939 297.03 371.845C298.013 370.127 299.09 368.246 300.842 366.553C305.787 361.771 315.25 350.936 317.113 342.392C318.347 336.67 323.641 339.266 325.491 342.326C328.272 346.895 325.58 352.524 323.147 357.612C322.942 358.04 322.739 358.464 322.542 358.883C320.344 363.533 320.679 368.805 326.563 368.129C329.002 367.851 330.941 367.603 332.681 367.38C336.001 366.956 338.596 366.624 342.553 366.354C348.652 365.944 350.569 368.407 350.569 370.699C350.569 372.981 350.093 373.96 349.73 374.709C349.504 375.173 349.322 375.548 349.322 376.09C349.322 376.594 349.914 376.803 350.677 377.073C352.058 377.561 354 378.247 354 381.243C354 384.285 352.434 385.274 351.35 385.958C350.778 386.32 350.341 386.596 350.341 387.045C350.341 387.527 350.832 387.91 351.45 388.392C352.497 389.208 353.906 390.307 353.906 392.648C353.906 394.914 352.128 395.982 350.736 396.818C349.842 397.354 349.108 397.795 349.108 398.396C349.108 399.087 349.422 399.548 349.768 400.055C350.191 400.676 350.663 401.366 350.663 402.635C350.663 404.94 345.797 410 328.64 410C311.273 410 305.444 407.559 300.712 405.578C297.48 404.225 294.759 403.086 289.221 403.086C289.221 403.086 285.559 402.929 281.433 402.602C290.167 416.649 305.742 426 323.5 426Z" fill="url(#paint1_linear_101_20)"/>
<circle cx="134.5" cy="64.5" r="5.5" fill="#E96E4C"/>
<circle cx="151.5" cy="64.5" r="5.5" fill="#E6A936"/>
<circle cx="168.5" cy="64.5" r="5.5" fill="#85C33D"/>
</g>
<path d="M86.9234 511.654C85.4074 511.724 84.0094 510.838 83.424 509.438C82.8385 508.038 83.1904 506.421 84.3048 505.391C84.3959 505.029 84.4612 504.769 84.5524 504.407C84.5198 504.328 84.487 504.249 84.454 504.171C82.9295 500.57 79.3927 498.236 75.4826 498.251C71.5725 498.265 68.0531 500.625 66.5555 504.237C63.6281 511.288 59.901 518.35 58.9833 525.805C58.5792 529.1 58.7497 532.44 59.4872 535.677C52.6116 520.679 49.0413 504.378 49.0183 487.878C49.0168 483.738 49.2468 479.601 49.7073 475.486C50.0878 472.113 50.6157 468.764 51.291 465.439C54.9762 447.398 62.8885 430.487 74.378 416.098C79.939 413.063 84.4362 408.397 87.2636 402.729C88.2879 400.691 89.0119 398.516 89.4129 396.27C88.7857 396.353 88.148 396.404 87.5208 396.445C87.3253 396.455 87.1197 396.466 86.9243 396.476L86.8506 396.479C85.4423 396.543 84.128 395.773 83.4934 394.515C82.8588 393.256 83.0221 391.742 83.9105 390.647C84.1813 390.314 84.4523 389.981 84.7235 389.648C85.1349 389.133 85.5565 388.63 85.9678 388.115C86.0153 388.067 86.06 388.015 86.1016 387.961C86.5747 387.375 87.0476 386.799 87.5208 386.213C86.6572 384.873 85.4958 383.75 84.1271 382.932C79.3863 380.156 72.8458 382.079 69.4212 386.367C65.9865 390.655 65.3386 396.671 66.5315 402.029C67.7046 406.588 69.6451 410.914 72.2699 414.822C72.0127 415.151 71.7454 415.47 71.4883 415.799C66.7886 421.843 62.6924 428.332 59.2586 435.174C60.0936 427.509 59.097 419.755 56.3506 412.55C53.5671 405.835 48.3499 400.18 43.7556 394.375C38.237 387.402 26.9207 390.445 25.9484 399.284C25.939 399.37 25.9298 399.455 25.9209 399.541C26.6033 399.926 27.2713 400.334 27.9249 400.766C29.6054 401.889 30.4243 403.929 29.9872 405.902C29.55 407.875 27.9464 409.378 25.9489 409.686L25.8489 409.701C26.092 412.16 26.5217 414.598 27.1344 416.992C30.723 430.505 39.7832 441.909 52.1343 448.461C52.5354 448.666 52.9262 448.872 53.3273 449.067C49.8773 458.844 47.7132 469.028 46.8896 479.363C46.4233 485.461 46.4508 491.586 46.9719 497.679L46.941 497.463C45.6246 490.688 42.0103 484.574 36.7086 480.155C28.8342 473.687 17.7092 471.305 9.21415 466.105C7.37079 464.922 5.00802 464.916 3.15891 466.09C1.3098 467.265 0.310704 469.406 0.598443 471.578C0.609823 471.653 0.621403 471.729 0.633183 471.805C1.89954 472.321 3.13254 472.915 4.32501 473.584C5.00743 473.969 5.67543 474.377 6.32901 474.81C8.00954 475.932 8.82849 477.972 8.39132 479.945C7.95416 481.918 6.35053 483.421 4.35301 483.729L4.25301 483.744C4.18101 483.754 4.11931 483.765 4.04743 483.775C6.21118 488.941 9.24808 493.697 13.0251 497.833C22.4553 507.952 35.6392 513.737 49.4708 513.824H49.4812C51.3389 521.897 54.0306 529.755 57.5128 537.271H86.2045C86.3074 536.952 86.3999 536.623 86.4925 536.305C83.8367 536.471 81.1705 536.313 78.5533 535.832C80.6821 533.219 82.8108 530.587 84.9396 527.975C84.9871 527.926 85.0317 527.874 85.0733 527.82C86.1531 526.484 87.2432 525.157 88.3229 523.82L88.3235 523.818C88.3811 519.72 87.9108 515.632 86.9244 511.654L86.9234 511.654Z" fill="#353F52"/>
<path d="M557.996 511.654C559.512 511.724 560.91 510.838 561.496 509.438C562.081 508.038 561.729 506.421 560.615 505.391C560.524 505.029 560.459 504.769 560.367 504.407C560.4 504.328 560.433 504.249 560.466 504.171C561.99 500.57 565.527 498.236 569.437 498.251C573.347 498.265 576.867 500.625 578.364 504.237C581.292 511.288 585.019 518.35 585.936 525.805C586.341 529.1 586.17 532.44 585.433 535.677C592.308 520.679 595.879 504.378 595.901 487.878C595.903 483.738 595.673 479.601 595.212 475.486C594.832 472.113 594.304 468.764 593.629 465.439C589.944 447.398 582.031 430.487 570.542 416.098C564.981 413.063 560.484 408.397 557.656 402.729C556.632 400.691 555.908 398.516 555.507 396.27C556.134 396.353 556.772 396.404 557.399 396.445C557.594 396.455 557.8 396.466 557.996 396.476L558.069 396.479C559.478 396.543 560.792 395.773 561.426 394.515C562.061 393.256 561.898 391.742 561.009 390.647C560.738 390.314 560.467 389.981 560.196 389.648C559.785 389.133 559.363 388.63 558.952 388.115C558.904 388.067 558.86 388.015 558.818 387.961C558.345 387.375 557.872 386.799 557.399 386.213C558.263 384.873 559.424 383.75 560.793 382.932C565.534 380.156 572.074 382.079 575.499 386.367C578.933 390.655 579.581 396.671 578.388 402.029C577.215 406.588 575.275 410.914 572.65 414.822C572.907 415.151 573.174 415.47 573.432 415.799C578.131 421.843 582.227 428.332 585.661 435.174C584.826 427.509 585.823 419.755 588.569 412.55C591.353 405.835 596.57 400.18 601.164 394.375C606.683 387.402 617.999 390.445 618.971 399.284C618.981 399.37 618.99 399.455 618.999 399.541C618.317 399.926 617.649 400.334 616.995 400.766C615.314 401.889 614.495 403.929 614.933 405.902C615.37 407.875 616.973 409.378 618.971 409.686L619.071 409.701C618.828 412.16 618.398 414.598 617.785 416.992C614.197 430.505 605.137 441.909 592.786 448.461C592.385 448.666 591.994 448.872 591.593 449.067C595.043 458.844 597.207 469.028 598.03 479.363C598.497 485.461 598.469 491.586 597.948 497.679L597.979 497.463C599.295 490.688 602.91 484.574 608.211 480.155C616.086 473.687 627.211 471.305 635.706 466.105C637.549 464.922 639.912 464.916 641.761 466.09C643.61 467.265 644.609 469.406 644.321 471.578C644.31 471.653 644.299 471.729 644.287 471.805C643.02 472.32 641.787 472.915 640.595 473.584C639.912 473.969 639.244 474.377 638.591 474.81C636.91 475.932 636.091 477.972 636.529 479.945C636.966 481.918 638.569 483.421 640.567 483.729L640.667 483.744C640.739 483.754 640.801 483.765 640.872 483.775C638.709 488.941 635.672 493.697 631.895 497.833C622.465 507.952 609.281 513.736 595.449 513.824H595.439C593.581 521.897 590.889 529.755 587.407 537.271H558.715C558.612 536.952 558.52 536.623 558.427 536.304C561.083 536.471 563.749 536.313 566.367 535.831C564.238 533.219 562.109 530.587 559.98 527.975C559.933 527.926 559.888 527.874 559.847 527.82C558.767 526.483 557.677 525.157 556.597 523.82L556.596 523.818C556.539 519.72 557.009 515.632 557.995 511.654L557.996 511.654Z" fill="#353F52"/>
<path d="M202.718 524.442H209.664L212.97 497.648H202.718V524.442Z" fill="#9E616A"/>
<path d="M200.45 519.684L211.548 519.021V523.776L222.099 531.063C223.169 531.802 223.634 533.15 223.247 534.391C222.86 535.632 221.711 536.477 220.411 536.477H207.199L204.922 531.774L204.032 536.477H199.051L200.45 519.684Z" fill="#101620"/>
<path d="M115.655 518.54L122.109 521.109L135.089 497.438L125.564 493.646L115.655 518.54Z" fill="#9E616A"/>
<path d="M115.307 513.281L125.863 516.77L124.105 521.188L131.213 531.861C131.933 532.942 131.867 534.367 131.049 535.377C130.23 536.387 128.85 536.747 127.642 536.267L115.367 531.38L114.99 526.168L112.425 530.209L107.796 528.367L115.307 513.281Z" fill="#101620"/>
<path d="M188.715 444.714L177.132 390.657L159.044 450.718L130.402 507.672L130.251 507.974L121.178 503.09C119.897 479.964 122.938 458.293 134.061 439.344L139.328 387.333C139.489 385.555 143.418 343.833 155.858 336.434L159.501 328.127L195.736 319.178L195.867 319.326C199.352 323.243 201.653 328.067 202.505 333.239L213.332 398.831L213.338 398.868L210.435 444.626L214.406 512.133H200.037C191.148 495.408 187.374 472.934 188.715 444.714Z" fill="#161D2A"/>
<path d="M365.683 224.135C365.683 239.498 388.497 266.479 393.501 251.953C399.628 234.169 412.696 222.896 421.319 224.135C436.527 226.32 408.865 196.317 393.501 196.317C378.138 196.317 365.683 208.771 365.683 224.135Z" fill="#212938"/>
<path d="M359.84 137.015C356.232 151.949 372.295 164.833 387.658 164.833C395.036 164.833 402.112 161.903 407.328 156.686C412.545 151.469 415.476 144.393 415.476 137.015C415.476 121.652 394.769 122.816 387.658 109.197C379.518 93.6064 367.595 104.914 359.84 137.015Z" fill="#212938"/>
<path d="M231.288 135.847C231.288 151.21 243.742 163.665 259.106 163.665C274.469 163.665 287.37 151.204 286.924 135.847C285.989 103.675 273.525 91.0691 259.106 108.028C249.154 119.733 231.288 120.483 231.288 135.847Z" fill="#212938"/>
<path d="M228.95 224.135C215.968 218.523 238.515 247.284 256.768 251.953C271.653 255.76 284.586 239.498 284.586 224.135C284.586 216.757 281.656 209.681 276.439 204.464C271.222 199.247 264.146 196.317 256.768 196.317C241.405 196.317 243.052 230.231 228.95 224.135Z" fill="#212938"/>
<path fill-rule="evenodd" clip-rule="evenodd" d="M390.389 124.39H353.179C351.617 124.39 350.119 125.01 349.015 126.114C347.91 127.219 347.29 128.717 347.29 130.278V167.488C347.29 170.741 349.927 173.377 353.179 173.377H390.389C393.641 173.377 396.278 170.741 396.278 167.488V130.278C396.278 127.026 393.641 124.39 390.389 124.39ZM383.402 136.952H379.135C376.221 136.952 375.654 138.332 375.654 140.368V144.687H382.602L381.7 151.468H375.641V169.15C373.05 169.636 370.391 169.63 367.803 169.131V151.468H362.247V144.687H367.906V139.672C367.906 133.678 372.07 130.403 377.433 130.403C380.011 130.403 382.77 130.597 383.402 130.687L383.402 136.952Z" fill="url(#paint2_linear_101_20)"/>
<path fill-rule="evenodd" clip-rule="evenodd" d="M297.312 124.39H260.102C256.85 124.39 254.214 127.026 254.214 130.278V167.488C254.214 170.741 256.85 173.377 260.102 173.377H297.312C300.565 173.377 303.201 170.741 303.201 167.488V130.278C303.201 127.026 300.565 124.39 297.312 124.39ZM278.707 161.947C271.493 161.947 265.644 156.098 265.644 148.883C265.644 141.669 271.493 135.82 278.707 135.82C285.922 135.82 291.771 141.669 291.771 148.883C291.771 156.098 285.922 161.947 278.707 161.947H278.707ZM293.404 135.82C292.083 135.82 290.892 135.024 290.386 133.804C289.881 132.584 290.16 131.179 291.094 130.245C292.028 129.311 293.433 129.032 294.653 129.537C295.874 130.042 296.669 131.233 296.669 132.554C296.669 134.358 295.207 135.82 293.404 135.82H293.404Z" fill="url(#paint3_linear_101_20)"/>
<path d="M399.353 212.277C401.501 212.292 403.532 213.258 404.9 214.914C406.267 216.571 406.831 218.748 406.439 220.86L420.341 229.906L416.904 239.696L397.451 226.645C393.868 225.731 391.535 222.281 392.02 218.616C392.506 214.95 395.656 212.226 399.353 212.277Z" fill="#FFB6B6"/>
<path d="M404.305 236.065L414.228 224.608L427.05 230.554L453.251 251.406C456.685 251.807 482.75 255.171 482.27 264.743C482.247 267.007 481.234 269.147 479.499 270.601C475.386 273.997 468.256 273.033 467.99 272.994L450.933 272.14C450.041 272.356 440.781 274.483 435.88 271.439C434.394 270.515 404.305 236.065 404.305 236.065Z" fill="#161D2A"/>
<path d="M432.921 528.689L424.794 528.688L420.928 497.341H432.922L432.921 528.689Z" fill="#FFB6B6"/>
<path d="M434.994 536.567L408.789 536.566V536.234C408.789 530.601 413.356 526.035 418.989 526.035H418.989L423.776 522.403L432.707 526.035L434.995 526.035L434.994 536.567Z" fill="#101620"/>
<path d="M522.124 522.328L514.29 524.492L502.217 495.305L513.779 492.112L522.124 522.328Z" fill="#FFB6B6"/>
<path d="M526.219 529.37L500.96 536.346L500.872 536.027C499.372 530.597 502.558 524.98 507.987 523.48L507.988 523.479L511.635 518.705L521.211 519.827L523.416 519.218L526.219 529.37Z" fill="#101620"/>
<path d="M433.28 338.979L494.69 342.112L494.71 342.168C498.389 352.386 499.248 363.406 497.197 374.071L499.077 389.737L508.476 438.614L521.009 501.278C521.009 501.278 537.301 505.664 515.996 513.184C494.69 520.704 499.077 516.317 502.21 510.677C505.343 505.038 486.857 441.434 486.857 441.434L464.298 390.677L442.366 443.314L439.859 501.591C439.859 501.591 446.439 509.424 427.64 512.557C408.841 515.691 409.781 509.738 414.167 505.351C418.554 500.965 422.314 442.687 422.314 442.687L426.7 387.543C426.7 387.543 425.447 355.585 433.28 338.979Z" fill="#0C1019"/>
<path d="M493.327 267.388L488.39 254.437L472.489 238.776L452.352 237.195L437.552 250.446L433.367 263.628C438.856 289.044 438.744 312.452 430.966 335.13C429.848 338.303 430.185 341.808 431.887 344.71C433.59 347.613 436.484 349.617 439.8 350.19C462.613 354.024 505.093 359.772 502.167 348.829C498.296 334.353 484.83 303.195 489.818 286.72C491.634 280.996 492.776 275.079 493.222 269.091L493.327 267.388Z" fill="#161D2A"/>
<circle cx="459.035" cy="214.169" r="17.9724" fill="#FFB6B6"/>
<path d="M454.13 231.197L467.83 230.498C469.585 230.409 471.501 230.254 472.778 229.046C473.465 228.3 473.993 227.422 474.331 226.466C475.597 223.524 476.864 220.582 478.098 217.627C479.805 213.538 481.482 209.222 481.046 204.813C480.944 202.799 480.1 200.895 478.676 199.468C477.182 198.053 474.922 197.824 473.174 198.91C472.746 196.085 471.044 193.613 468.556 192.206C466.077 190.836 463.246 190.236 460.425 190.482C456.33 190.745 452.422 192.286 449.248 194.887C448.355 195.71 447.402 196.465 446.397 197.146C445.374 197.83 444.116 198.062 442.917 197.79C441.701 197.465 440.912 196.293 441.068 195.045C439.069 196.54 438.532 199.309 439.829 201.442C438.382 202.048 436.724 201.852 435.459 200.925C433.641 201.827 432.491 203.68 432.491 205.709C432.49 207.738 433.639 209.592 435.456 210.495C437.273 211.398 439.445 211.194 441.061 209.968C441.893 211.132 441.583 212.715 441.475 214.142C441.367 215.569 441.749 217.342 443.125 217.736C444.984 218.269 446.491 215.766 448.425 215.792C449.394 215.871 450.259 216.429 450.732 217.279C451.187 218.12 451.5 219.031 451.655 219.975L454.131 231.119" fill="#161D2A"/>
<path fill-rule="evenodd" clip-rule="evenodd" d="M362.366 259.793C355.523 259.797 348.825 257.812 343.09 254.079L340.204 252.203L343.625 252.583C344.521 252.682 345.487 252.741 346.494 252.755C351.106 252.758 355.621 251.432 359.497 248.933C354.81 247.918 351.01 244.498 349.508 239.944L349.079 238.623L350.441 238.89C351.06 239.013 351.688 239.083 352.318 239.102C347.918 236.838 345.148 232.309 345.136 227.36V225.962L346.353 226.5C347.075 226.906 347.84 227.231 348.634 227.469C344.784 223.15 344.135 216.849 347.025 211.836L347.62 210.81L348.366 211.731C353.801 218.457 361.59 222.866 370.155 224.065C370.63 224.133 371.112 223.989 371.472 223.672C371.841 223.352 372.052 222.887 372.052 222.399C372.011 217.06 375.203 212.227 380.13 210.17C385.057 208.113 390.739 209.241 394.506 213.024C397.027 212.473 399.443 211.524 401.664 210.212L403.539 209.102L402.856 211.171C402.223 213.089 401.161 214.838 399.751 216.285C401.002 215.96 402.225 215.535 403.409 215.015L405.949 213.899L404.418 216.213C402.797 218.668 400.772 220.83 398.429 222.609V223.789C398.429 241.487 384.967 259.793 362.439 259.793L362.366 259.793Z" fill="url(#paint4_linear_101_20)"/>
<path d="M378.505 247.191C380.651 247.103 382.726 247.97 384.172 249.559C385.617 251.148 386.285 253.295 385.995 255.424L400.318 263.789L397.357 273.733L377.296 261.635C373.673 260.894 371.177 257.561 371.485 253.877C371.793 250.192 374.809 247.32 378.505 247.191L378.505 247.191Z" fill="#FFB6B6"/>
<path d="M395.369 278.409L384.671 266.833L392.087 255.746L400.079 262.451L408.818 264.542L421.148 269.217C422.864 266.215 436.183 243.56 444.8 247.755C446.873 248.665 448.444 250.436 449.102 252.603C450.611 257.719 446.928 263.898 446.787 264.128L439.311 279.483C439.159 280.388 437.483 289.74 432.761 293.054C431.411 294.041 429.71 294.417 428.07 294.09C413.395 291.315 403.054 287.023 397.778 281.563C396.848 280.615 396.038 279.556 395.369 278.409Z" fill="#161D2A"/>
<path d="M205.088 233.654C203.442 230.113 206.055 226.159 206.988 222.346C208.728 215.231 203.824 207.528 197.178 205.063C190.532 202.598 182.894 204.658 177.184 208.972C171.588 213.201 167.653 215.193 163.798 221.168C162.505 223.172 161.136 229.393 160.891 231.793C160.647 234.193 161.888 236.942 164.152 237.469C163.71 238.341 163.79 239.388 164.36 240.183C164.93 240.978 165.895 241.39 166.863 241.251C171.196 240.414 179.153 242.715 179.153 242.715C186.573 243.14 193.992 243.564 201.411 243.989C203.312 244.098 205.285 244.197 206.993 243.146C207.949 242.587 208.612 241.637 208.809 240.546C209.243 237.736 206.223 236.096 205.088 233.654Z" fill="#161D2A"/>
<path d="M210.69 264.643L209.067 275.449L206.493 292.57L206.056 298.913L202.852 345.406L194.028 352.194C183.451 360.33 168.451 359.229 159.175 349.636L148.46 344.477C154.202 338.828 153.135 312.644 153.135 312.644L153.07 261.217L167.595 256.333L172.379 246.914H189.543L193.834 256.927L201.622 260.488L205.169 262.119L210.69 264.643Z" fill="#E6E6E6"/>
<circle cx="181.67" cy="227.572" r="14.512" fill="#FACCB6"/>
<path d="M173.379 223.02C169.545 223.026 165.803 221.845 162.667 219.64L162.562 219.567C162.562 215.823 164.049 212.233 166.697 209.586C169.344 206.938 172.934 205.451 176.678 205.451H182.44C186.159 205.455 189.724 206.939 192.348 209.574C194.972 212.21 196.44 215.781 196.428 219.5C196.403 221.248 194.99 222.658 193.242 222.68L173.71 223.017C173.6 223.019 173.489 223.02 173.379 223.02Z" fill="#161D2A"/>
<path d="M215.859 294.477L202.713 294.585L201.747 317.982L191.067 331.058C187.461 331.665 184.895 334.895 185.12 338.545C185.344 342.194 188.287 345.086 191.939 345.247C195.592 345.407 198.778 342.785 199.322 339.17L214.035 318.773L215.859 294.477Z" fill="#9E616A"/>
<path d="M146.547 295.177L133.072 288.877L118.358 307.094L101.99 311.234C98.7323 309.573 94.7467 310.639 92.7528 313.704C90.7589 316.769 91.3996 320.844 94.2378 323.15C97.076 325.455 101.196 325.247 103.787 322.667L127.755 315.05L146.547 295.177Z" fill="#9E616A"/>
<path d="M188.932 240.964L193.956 234.696C194.498 234.147 194.852 233.439 194.964 232.675C194.99 231.909 194.268 231.088 193.54 231.328C192.865 231.551 188.97 221.795 188.259 221.797C187.521 221.799 187.281 220.816 187.271 220.078C187.236 217.284 189.508 220.285 190.258 217.593C191.009 214.901 193.937 217.215 196.46 216.013C198.983 214.811 202.41 215.357 203.97 217.676C205.126 219.395 205.084 221.629 204.93 223.696C204.574 228.491 203.853 233.252 202.772 237.938C202.506 239.089 202.111 240.375 201.051 240.895C200.467 241.126 199.838 241.22 199.212 241.17L191.476 241.132" fill="#161D2A"/>
<circle cx="200.986" cy="206.865" r="7.15158" fill="#161D2A"/>
<path d="M217.07 294.251C216.297 295.595 214.653 296.132 213.151 296.546C211.12 297.111 210.526 297.683 208.495 298.248C207.687 298.477 206.872 298.706 206.057 298.913C204.718 299.274 203.359 299.553 201.987 299.75C200.836 299.915 199.477 299.915 198.726 299.021C198.228 298.253 198.027 297.33 198.161 296.425C198.454 285.44 198.75 274.455 199.048 263.47L199.67 263.685C199.95 263.5 200.242 263.333 200.543 263.184C201.974 262.455 203.563 262.089 205.17 262.119C206.089 262.126 207.002 262.268 207.88 262.541C210.639 263.416 212.873 265.462 213.988 268.133C214.701 270.125 215.04 272.232 214.989 274.348C214.996 274.67 214.996 274.991 215.003 275.313C215.046 278.059 213.651 280.806 213.694 283.552C213.662 284.325 213.768 285.098 214.009 285.833C214.295 286.563 214.853 287.171 215.067 287.929C215.282 288.68 214.932 289.709 214.152 289.767C215.275 289.647 216.37 290.167 216.986 291.114C217.602 292.06 217.634 293.273 217.07 294.251V294.251Z" fill="#E6E6E6"/>
<path d="M153.13 261.279C156.026 261.454 158.693 262.91 160.405 265.252C162.116 267.594 162.694 270.577 161.981 273.389C161.234 275.709 160.059 277.869 158.517 279.757L153.71 286.447C153.222 287.046 152.847 287.729 152.603 288.462C152.401 289.221 152.48 290.043 152.203 290.778C151.926 291.513 151.034 292.129 150.372 291.708C151.345 292.28 151.914 293.35 151.846 294.478C151.778 295.605 151.084 296.598 150.049 297.05C148.623 297.672 146.984 297.117 145.531 296.561L139.628 294.302C137.529 293.553 135.483 292.661 133.505 291.633C132.484 291.072 131.393 290.264 131.32 289.101C131.264 288.196 132.03 287.5 132.413 286.678C137.221 276.386 144.29 268.196 153.07 261.217L153.13 261.279Z" fill="#E6E6E6"/>
<path fill-rule="evenodd" clip-rule="evenodd" d="M160.036 323.236C160.036 317.481 155.795 312.844 150.49 312.844C143.385 312.503 136.156 312.381 128.765 312.381H126.46C119.082 312.381 111.826 312.503 104.735 312.844C99.5112 312.844 95.2699 317.495 95.2699 323.264C94.9426 327.832 94.8061 332.387 94.8198 336.902C94.8334 341.416 94.9426 346.025 95.2562 350.54C95.2562 356.308 99.4976 360.986 104.721 360.986C112.167 361.327 119.818 361.477 127.592 361.477C135.365 361.477 143.003 361.341 150.476 360.986C155.713 360.986 160.023 356.308 160.023 350.54C160.323 345.971 160.473 341.416 160.459 336.833C160.445 332.251 160.336 327.723 160.036 323.195L160.036 323.236ZM121.4 349.517V324.341L139.975 336.915L121.4 349.517Z" fill="url(#paint5_linear_101_20)"/>
<path d="M643.937 539.229L1.18724 539.537C0.530989 539.535 0 539.002 0 538.346C0 537.69 0.530989 537.157 1.18724 537.155L643.937 536.848C644.594 536.85 645.124 537.382 645.124 538.039C645.124 538.695 644.594 539.227 643.937 539.229Z" fill="#353F52"/>
<defs>
<filter id="filter0_d_101_20" x="70" y="14" width="506" height="528" filterUnits="userSpaceOnUse" color-interpolation-filters="sRGB">
<feFlood flood-opacity="0" result="BackgroundImageFix"/>
<feColorMatrix in="SourceAlpha" type="matrix" values="0 0 0 0 0 0 0 0 0 0 0 0 0 0 0 0 0 0 127 0" result="hardAlpha"/>
<feOffset dy="14"/>
<feGaussianBlur stdDeviation="21.5"/>
<feColorMatrix type="matrix" values="0 0 0 0 0 0 0 0 0 0 0 0 0 0 0 0 0 0 0.281587 0"/>
<feBlend mode="normal" in2="BackgroundImageFix" result="effect1_dropShadow_101_20"/>
<feBlend mode="normal" in="SourceGraphic" in2="effect1_dropShadow_101_20" result="shape"/>
</filter>
<linearGradient id="paint0_linear_101_20" x1="-7.5" y1="272" x2="168.776" y2="403.249" gradientUnits="userSpaceOnUse">
<stop stop-color="#3087FB"/>
<stop offset="1" stop-color="#B34EFF"/>
</linearGradient>
<linearGradient id="paint1_linear_101_20" x1="224.5" y1="376.5" x2="323.5" y2="475.5" gradientUnits="userSpaceOnUse">
<stop stop-color="#3087FB"/>
<stop offset="1" stop-color="#B34EFF"/>
</linearGradient>
<linearGradient id="paint2_linear_101_20" x1="322.796" y1="148.883" x2="371.784" y2="197.871" gradientUnits="userSpaceOnUse">
<stop stop-color="#3087FB"/>
<stop offset="1" stop-color="#B34EFF"/>
</linearGradient>
<linearGradient id="paint3_linear_101_20" x1="229.72" y1="148.883" x2="278.707" y2="197.871" gradientUnits="userSpaceOnUse">
<stop stop-color="#3087FB"/>
<stop offset="1" stop-color="#B34EFF"/>
</linearGradient>
<linearGradient id="paint4_linear_101_20" x1="307.331" y1="234.448" x2="356.355" y2="298.031" gradientUnits="userSpaceOnUse">
<stop stop-color="#3087FB"/>
<stop offset="1" stop-color="#B34EFF"/>
</linearGradient>
<linearGradient id="paint5_linear_101_20" x1="61.9983" y1="336.929" x2="109.095" y2="399.896" gradientUnits="userSpaceOnUse">
<stop stop-color="#3087FB"/>
<stop offset="1" stop-color="#B34EFF"/>
</linearGradient>
</defs>
</svg>
