<svg width="41" height="41" viewBox="0 0 41 41" fill="none" xmlns="http://www.w3.org/2000/svg">
<circle cx="20.5" cy="20.5" r="20.5" fill="#5B9AFF"/>
<path d="M14.075 30V12.675H17.2V24.175C17.7667 23.275 18.4083 22.3083 19.125 21.275C19.8583 20.225 20.6083 19.1833 21.375 18.15C22.1583 17.1167 22.9333 16.125 23.7 15.175C24.4667 14.2083 25.1833 13.375 25.85 12.675H28.425V30H25.325V17.6C24.625 18.4333 23.8833 19.375 23.1 20.425C22.3333 21.4583 21.575 22.5333 20.825 23.65C20.075 24.75 19.35 25.85 18.65 26.95C17.95 28.0333 17.3167 29.05 16.75 30H14.075Z" fill="white"/>
</svg>
