<svg width="41" height="41" viewBox="0 0 41 41" fill="none" xmlns="http://www.w3.org/2000/svg">
<circle cx="20.5" cy="20.5" r="20.5" fill="#3E67A9"/>
<path d="M13.075 30V12.675H16.2V24.175C16.7667 23.275 17.4083 22.3083 18.125 21.275C18.8583 20.225 19.6083 19.1833 20.375 18.15C21.1583 17.1167 21.9333 16.125 22.7 15.175C23.4667 14.2083 24.1833 13.375 24.85 12.675H27.425V30H24.325V17.6C23.625 18.4333 22.8833 19.375 22.1 20.425C21.3333 21.4583 20.575 22.5333 19.825 23.65C19.075 24.75 18.35 25.85 17.65 26.95C16.95 28.0333 16.3167 29.05 15.75 30H13.075Z" fill="white"/>
</svg>
