<svg width="214" height="75" viewBox="0 0 214 75" fill="none" xmlns="http://www.w3.org/2000/svg">
<g clip-path="url(#clip0_0_4089)">
<path d="M120.533 25.4828C121.182 25.4828 121.714 25.4336 122.127 25.3352C122.56 25.2171 122.904 25.0695 123.16 24.8924C123.416 24.6955 123.593 24.4692 123.692 24.2133C123.79 23.9575 123.839 23.6721 123.839 23.3572C123.839 22.688 123.524 22.1369 122.894 21.7039C122.265 21.2513 121.182 20.7691 119.647 20.2573C118.978 20.0212 118.309 19.7555 117.639 19.4602C116.97 19.1453 116.37 18.7615 115.839 18.3089C115.307 17.8365 114.874 17.2756 114.54 16.6261C114.205 15.9569 114.038 15.15 114.038 14.2053C114.038 13.2605 114.215 12.4142 114.569 11.6663C114.923 10.8987 115.425 10.2493 116.075 9.71785C116.724 9.18645 117.512 8.78298 118.437 8.50743C119.362 8.21221 120.405 8.0646 121.566 8.0646C122.944 8.0646 124.134 8.21221 125.138 8.50743C126.142 8.80266 126.969 9.1274 127.618 9.48167L126.29 13.1129C125.719 12.8177 125.079 12.5618 124.371 12.3453C123.682 12.1092 122.845 11.9911 121.861 11.9911C120.759 11.9911 119.962 12.1485 119.47 12.4634C118.998 12.7587 118.761 13.2212 118.761 13.851C118.761 14.2249 118.85 14.5398 119.027 14.7957C119.204 15.0516 119.45 15.2877 119.765 15.5042C120.1 15.7011 120.474 15.888 120.887 16.0652C121.32 16.2226 121.792 16.3899 122.304 16.567C123.367 16.9607 124.292 17.3543 125.079 17.7479C125.866 18.1219 126.516 18.5647 127.028 19.0764C127.559 19.5882 127.953 20.1885 128.209 20.8773C128.464 21.5662 128.592 22.4026 128.592 23.3867C128.592 25.2958 127.923 26.7818 126.585 27.8446C125.246 28.8877 123.229 29.4093 120.533 29.4093C119.627 29.4093 118.811 29.3502 118.082 29.2322C117.354 29.1337 116.705 29.0058 116.134 28.8484C115.583 28.6909 115.101 28.5236 114.687 28.3465C114.294 28.1693 113.959 28.0021 113.683 27.8446L114.982 24.1838C115.593 24.5184 116.341 24.8235 117.226 25.099C118.132 25.3549 119.234 25.4828 120.533 25.4828ZM135.546 8.53696C135.901 9.18645 136.304 9.99339 136.757 10.9578C137.229 11.9025 137.711 12.9358 138.203 14.0576C138.715 15.1598 139.217 16.2915 139.709 17.4527C140.201 18.6139 140.664 19.7063 141.097 20.7297C141.53 19.7063 141.992 18.6139 142.484 17.4527C142.976 16.2915 143.468 15.1598 143.96 14.0576C144.472 12.9358 144.954 11.9025 145.407 10.9578C145.879 9.99339 146.293 9.18645 146.647 8.53696H150.839C151.036 9.89499 151.213 11.4203 151.37 13.1129C151.548 14.7859 151.695 16.5375 151.813 18.3679C151.951 20.1786 152.069 21.9992 152.167 23.8296C152.286 25.6599 152.384 27.3821 152.463 28.996H147.975C147.916 27.0081 147.838 24.8432 147.739 22.501C147.641 20.1589 147.493 17.7971 147.296 15.4157C146.942 16.2423 146.548 17.1575 146.115 18.1613C145.682 19.165 145.249 20.1688 144.816 21.1725C144.403 22.1763 144 23.1407 143.606 24.0657C143.212 24.9711 142.878 25.7485 142.602 26.398H139.384C139.109 25.7485 138.774 24.9711 138.381 24.0657C137.987 23.1407 137.574 22.1763 137.141 21.1725C136.727 20.1688 136.304 19.165 135.871 18.1613C135.438 17.1575 135.045 16.2423 134.69 15.4157C134.493 17.7971 134.346 20.1589 134.247 22.501C134.149 24.8432 134.07 27.0081 134.011 28.996H129.524C129.603 27.3821 129.691 25.6599 129.79 23.8296C129.908 21.9992 130.026 20.1786 130.144 18.3679C130.282 16.5375 130.429 14.7859 130.587 13.1129C130.764 11.4203 130.951 9.89499 131.148 8.53696H135.546ZM160.02 8.53696C160.374 9.18645 160.778 9.99339 161.23 10.9578C161.703 11.9025 162.185 12.9358 162.677 14.0576C163.189 15.1598 163.691 16.2915 164.183 17.4527C164.675 18.6139 165.137 19.7063 165.57 20.7297C166.003 19.7063 166.466 18.6139 166.958 17.4527C167.45 16.2915 167.942 15.1598 168.434 14.0576C168.946 12.9358 169.428 11.9025 169.88 10.9578C170.353 9.99339 170.766 9.18645 171.12 8.53696H175.313C175.509 9.89499 175.686 11.4203 175.844 13.1129C176.021 14.7859 176.169 16.5375 176.287 18.3679C176.425 20.1786 176.543 21.9992 176.641 23.8296C176.759 25.6599 176.858 27.3821 176.936 28.996H172.449C172.39 27.0081 172.311 24.8432 172.213 22.501C172.114 20.1589 171.967 17.7971 171.77 15.4157C171.416 16.2423 171.022 17.1575 170.589 18.1613C170.156 19.165 169.723 20.1688 169.29 21.1725C168.877 22.1763 168.473 23.1407 168.08 24.0657C167.686 24.9711 167.351 25.7485 167.076 26.398H163.858C163.582 25.7485 163.248 24.9711 162.854 24.0657C162.46 23.1407 162.047 22.1763 161.614 21.1725C161.201 20.1688 160.778 19.165 160.345 18.1613C159.912 17.1575 159.518 16.2423 159.164 15.4157C158.967 17.7971 158.819 20.1589 158.721 22.501C158.623 24.8432 158.544 27.0081 158.485 28.996H153.997C154.076 27.3821 154.165 25.6599 154.263 23.8296C154.381 21.9992 154.499 20.1786 154.617 18.3679C154.755 16.5375 154.903 14.7859 155.06 13.1129C155.237 11.4203 155.424 9.89499 155.621 8.53696H160.02Z" fill="url(#paint0_linear_0_4089)"/>
<path d="M101.974 70.3002C100.582 70.3002 99.3331 70.086 98.2268 69.6578C97.1205 69.2296 96.1837 68.605 95.4165 67.7843C94.6492 66.9456 94.0604 65.9286 93.65 64.7331C93.2396 63.5376 93.0344 62.1636 93.0344 60.6113C93.0344 59.0589 93.2663 57.685 93.7303 56.4895C94.212 55.294 94.8633 54.2858 95.6841 53.4651C96.5049 52.6264 97.4684 51.993 98.5747 51.5647C99.681 51.1365 100.868 50.9224 102.134 50.9224C102.902 50.9224 103.598 50.9848 104.222 51.1097C104.847 51.2168 105.391 51.3417 105.855 51.4845C106.319 51.6272 106.702 51.7789 107.006 51.9395C107.309 52.1 107.523 52.216 107.648 52.2874L106.658 55.0442C106.229 54.7765 105.614 54.5267 104.811 54.2948C104.026 54.045 103.169 53.9201 102.242 53.9201C101.439 53.9201 100.689 54.0628 99.9933 54.3483C99.2974 54.6159 98.6907 55.0263 98.1732 55.5795C97.6736 56.1326 97.2811 56.8285 96.9956 57.6671C96.7101 58.5058 96.5673 59.4782 96.5673 60.5845C96.5673 61.5659 96.6744 62.467 96.8885 63.2878C97.1205 64.1085 97.4684 64.8223 97.9324 65.4289C98.3963 66.0178 98.9851 66.4817 99.6988 66.8207C100.413 67.1419 101.269 67.3025 102.268 67.3025C103.464 67.3025 104.436 67.1865 105.186 66.9545C105.935 66.7047 106.515 66.4728 106.925 66.2587L107.835 69.0154C107.621 69.1582 107.327 69.3009 106.952 69.4437C106.595 69.5864 106.167 69.7292 105.667 69.8719C105.168 69.9968 104.606 70.095 103.981 70.1663C103.357 70.2555 102.688 70.3002 101.974 70.3002ZM125.202 60.6113C125.202 61.6283 125.327 62.5562 125.577 63.3948C125.827 64.2156 126.183 64.9204 126.647 65.5092C127.129 66.0802 127.709 66.5263 128.387 66.8475C129.065 67.1687 129.832 67.3293 130.689 67.3293C131.528 67.3293 132.286 67.1687 132.964 66.8475C133.642 66.5263 134.213 66.0802 134.677 65.5092C135.159 64.9204 135.524 64.2156 135.774 63.3948C136.024 62.5562 136.149 61.6283 136.149 60.6113C136.149 59.5942 136.024 58.6753 135.774 57.8545C135.524 57.0159 135.159 56.3111 134.677 55.7401C134.213 55.1512 133.642 54.6962 132.964 54.3751C132.286 54.0539 131.528 53.8933 130.689 53.8933C129.832 53.8933 129.065 54.0539 128.387 54.3751C127.709 54.6962 127.129 55.1512 126.647 55.7401C126.183 56.3289 125.827 57.0337 125.577 57.8545C125.327 58.6753 125.202 59.5942 125.202 60.6113ZM139.682 60.6113C139.682 62.1993 139.441 63.6 138.959 64.8134C138.495 66.0267 137.853 67.0438 137.032 67.8646C136.229 68.6675 135.284 69.2742 134.195 69.6846C133.107 70.095 131.947 70.3002 130.716 70.3002C129.484 70.3002 128.316 70.095 127.209 69.6846C126.121 69.2742 125.166 68.6675 124.346 67.8646C123.543 67.0438 122.9 66.0267 122.419 64.8134C121.937 63.6 121.696 62.1993 121.696 60.6113C121.696 59.0232 121.937 57.6315 122.419 56.436C122.9 55.2226 123.552 54.2055 124.372 53.3848C125.211 52.564 126.175 51.9484 127.263 51.538C128.351 51.1276 129.502 50.9224 130.716 50.9224C131.929 50.9224 133.08 51.1276 134.168 51.538C135.257 51.9484 136.202 52.564 137.005 53.3848C137.826 54.2055 138.477 55.2226 138.959 56.436C139.441 57.6315 139.682 59.0232 139.682 60.6113ZM158.872 67.1151C159.068 67.133 159.327 67.1508 159.648 67.1687C159.969 67.1687 160.406 67.1687 160.959 67.1687C163.225 67.1687 164.912 66.5977 166.018 65.4557C167.142 64.2959 167.704 62.6811 167.704 60.6113C167.704 58.5058 167.16 56.891 166.071 55.7668C164.983 54.6427 163.297 54.0806 161.013 54.0806C160.014 54.0806 159.3 54.1074 158.872 54.1609V67.1151ZM171.237 60.6113C171.237 62.2172 170.987 63.6179 170.488 64.8134C169.988 65.991 169.274 66.9813 168.346 67.7843C167.436 68.5694 166.33 69.1582 165.028 69.5507C163.743 69.9254 162.315 70.1128 160.745 70.1128C159.996 70.1128 159.148 70.0771 158.202 70.0057C157.257 69.9522 156.356 69.8273 155.499 69.631V51.6183C156.356 51.422 157.266 51.2971 158.229 51.2436C159.193 51.19 160.049 51.1633 160.799 51.1633C162.351 51.1633 163.77 51.3506 165.054 51.7253C166.339 52.0822 167.436 52.6532 168.346 53.4383C169.274 54.2055 169.988 55.1869 170.488 56.3824C170.987 57.5601 171.237 58.9697 171.237 60.6113ZM187.037 69.8987V51.3506H198.948V54.2145H190.41V58.7913H198.011V61.6016H190.41V67.0348H199.59V69.8987H187.037Z" fill="url(#paint1_linear_0_4089)"/>
<path fill-rule="evenodd" clip-rule="evenodd" d="M41.7304 73.9999C60.5498 73.9999 75.8059 58.5816 75.8059 39.5623C75.8059 20.5429 60.5498 5.12463 41.7304 5.12463C22.9109 5.12463 7.65479 20.5429 7.65479 39.5623C7.65479 39.7704 7.65661 39.9781 7.66025 40.1854C12.2017 40.2172 18.0981 40.5529 18.0981 40.5529C21.2506 40.5529 22.2653 38.7734 23.488 36.6294C24.167 35.4387 24.9101 34.1356 26.1191 32.9624C29.5329 29.649 36.0645 22.1411 37.3505 16.2211C38.2016 12.2561 41.8559 14.055 43.1326 16.1752C45.0527 19.3415 43.1945 23.242 41.515 26.7671C41.3737 27.0637 41.2337 27.3576 41.0973 27.6481C39.5801 30.8697 39.8114 34.5227 43.8728 34.0546C45.556 33.862 46.8945 33.6901 48.0956 33.5358C50.3869 33.2415 52.1785 33.0114 54.9098 32.8247C59.1193 32.5402 60.4422 34.2473 60.4422 35.8352C60.4422 37.4166 60.1141 38.0949 59.8631 38.6137C59.7077 38.9351 59.5818 39.1952 59.5818 39.5708C59.5818 39.9201 59.9904 40.0651 60.5169 40.2518C61.4704 40.5901 62.8106 41.0656 62.8106 43.1412C62.8106 45.249 61.7294 45.9345 60.9818 46.4085C60.5868 46.6589 60.2849 46.8503 60.2849 47.1613C60.2849 47.4952 60.6242 47.7609 61.0508 48.0949C61.7731 48.6605 62.7458 49.4222 62.7458 51.0437C62.7458 52.6139 61.5182 53.354 60.5577 53.9331C59.9406 54.3051 59.4338 54.6106 59.4338 55.0271C59.4338 55.5057 59.6506 55.8247 59.8894 56.1761C60.1817 56.6063 60.507 57.085 60.507 57.9642C60.507 59.5612 57.1487 63.0673 45.3068 63.0673C33.3191 63.0673 29.2959 61.3762 26.0299 60.0034C23.7986 59.0655 21.9208 58.2762 18.0981 58.2762C18.0981 58.2762 15.6849 58.1724 12.9175 57.9562C18.9567 67.5981 29.6038 73.9999 41.7304 73.9999Z" fill="url(#paint2_linear_0_4089)"/>
</g>
<defs>
<linearGradient id="paint0_linear_0_4089" x1="35.9766" y1="17.996" x2="55.2081" y2="80.0343" gradientUnits="userSpaceOnUse">
<stop stop-color="#3087FB"/>
<stop offset="1" stop-color="#B34EFF"/>
</linearGradient>
<linearGradient id="paint1_linear_0_4089" x1="37.0088" y1="60.3987" x2="53.3223" y2="117.759" gradientUnits="userSpaceOnUse">
<stop stop-color="#3087FB"/>
<stop offset="1" stop-color="#B34EFF"/>
</linearGradient>
<linearGradient id="paint2_linear_0_4089" x1="-26.4208" y1="39.5623" x2="42.4506" y2="107.71" gradientUnits="userSpaceOnUse">
<stop stop-color="#3087FB"/>
<stop offset="1" stop-color="#B34EFF"/>
</linearGradient>
<clipPath id="clip0_0_4089">
<rect width="213.509" height="73.9027" fill="white" transform="translate(0 0.995972)"/>
</clipPath>
</defs>
</svg>
