<svg width="126" height="47" viewBox="0 0 126 47" fill="none" xmlns="http://www.w3.org/2000/svg">
<g clip-path="url(#clip0_0_1964)">
<path d="M85.1499 38.673C86.1619 38.673 86.9899 38.5963 87.6339 38.443C88.3086 38.259 88.8452 38.029 89.2439 37.753C89.6426 37.4463 89.9186 37.0936 90.0719 36.695C90.2252 36.2963 90.3019 35.8516 90.3019 35.361C90.3019 34.3183 89.8112 33.4596 88.8299 32.785C87.8486 32.0796 86.1619 31.3283 83.7699 30.531C82.7272 30.163 81.6846 29.749 80.6419 29.289C79.5992 28.7983 78.6639 28.2003 77.8359 27.495C77.0079 26.759 76.3332 25.885 75.8119 24.873C75.2906 23.8303 75.0299 22.573 75.0299 21.101C75.0299 19.629 75.3059 18.3103 75.8579 17.145C76.4099 15.949 77.1919 14.937 78.2039 14.109C79.2159 13.281 80.4426 12.6523 81.8839 12.223C83.3252 11.763 84.9506 11.533 86.7599 11.533C88.9066 11.533 90.7619 11.763 92.3259 12.223C93.8899 12.683 95.1779 13.189 96.1899 13.741L94.1199 19.399C93.2306 18.939 92.2339 18.5403 91.1299 18.203C90.0566 17.835 88.7532 17.651 87.2199 17.651C85.5026 17.651 84.2606 17.8963 83.4939 18.387C82.7579 18.847 82.3899 19.5676 82.3899 20.549C82.3899 21.1316 82.5279 21.6223 82.8039 22.021C83.0799 22.4196 83.4632 22.7876 83.9539 23.125C84.4752 23.4316 85.0579 23.723 85.7019 23.999C86.3766 24.2443 87.1126 24.505 87.9099 24.781C89.5659 25.3943 91.0072 26.0076 92.2339 26.621C93.4606 27.2036 94.4726 27.8936 95.2699 28.691C96.0979 29.4883 96.7112 30.4236 97.1099 31.497C97.5086 32.5703 97.7079 33.8736 97.7079 35.407C97.7079 38.3816 96.6652 40.697 94.5799 42.353C92.4946 43.9783 89.3512 44.791 85.1499 44.791C83.7392 44.791 82.4666 44.699 81.3319 44.515C80.1972 44.3616 79.1852 44.1623 78.2959 43.917C77.4372 43.6716 76.6859 43.411 76.0419 43.135C75.4286 42.859 74.9072 42.5983 74.4779 42.353L76.5019 36.649C77.4526 37.1703 78.6179 37.6456 79.9979 38.075C81.4086 38.4736 83.1259 38.673 85.1499 38.673ZM77.665 65.269C78.217 66.281 78.8457 67.5383 79.551 69.041C80.287 70.513 81.0383 72.123 81.805 73.871C82.6023 75.5883 83.3843 77.3516 84.151 79.161C84.9177 80.9703 85.6383 82.6723 86.313 84.267C86.9877 82.6723 87.7083 80.9703 88.475 79.161C89.2417 77.3516 90.0083 75.5883 90.775 73.871C91.5723 72.123 92.3237 70.513 93.029 69.041C93.765 67.5383 94.409 66.281 94.961 65.269H101.493C101.8 67.385 102.076 69.7616 102.321 72.399C102.597 75.0056 102.827 77.735 103.011 80.587C103.226 83.4083 103.41 86.245 103.563 89.097C103.747 91.949 103.9 94.6323 104.023 97.147H97.031C96.939 94.0496 96.8163 90.6763 96.663 87.027C96.5097 83.3776 96.2797 79.6976 95.973 75.987C95.421 77.275 94.8077 78.701 94.133 80.265C93.4583 81.829 92.7837 83.393 92.109 84.957C91.465 86.521 90.8363 88.0236 90.223 89.465C89.6097 90.8756 89.0883 92.087 88.659 93.099H83.645C83.2157 92.087 82.6943 90.8756 82.081 89.465C81.4677 88.0236 80.8237 86.521 80.149 84.957C79.505 83.393 78.8457 81.829 78.171 80.265C77.4963 78.701 76.883 77.275 76.331 75.987C76.0243 79.6976 75.7943 83.3776 75.641 87.027C75.4877 90.6763 75.365 94.0496 75.273 97.147H68.281C68.4037 94.6323 68.5417 91.949 68.695 89.097C68.879 86.245 69.063 83.4083 69.247 80.587C69.4617 77.735 69.6917 75.0056 69.937 72.399C70.213 69.7616 70.5043 67.385 70.811 65.269H77.665ZM77.665 118.269C78.217 119.281 78.8457 120.538 79.551 122.041C80.287 123.513 81.0383 125.123 81.805 126.871C82.6023 128.588 83.3843 130.352 84.151 132.161C84.9177 133.97 85.6383 135.672 86.313 137.267C86.9877 135.672 87.7083 133.97 88.475 132.161C89.2417 130.352 90.0083 128.588 90.775 126.871C91.5723 125.123 92.3237 123.513 93.029 122.041C93.765 120.538 94.409 119.281 94.961 118.269H101.493C101.8 120.385 102.076 122.762 102.321 125.399C102.597 128.006 102.827 130.735 103.011 133.587C103.226 136.408 103.41 139.245 103.563 142.097C103.747 144.949 103.9 147.632 104.023 150.147H97.031C96.939 147.05 96.8163 143.676 96.663 140.027C96.5097 136.378 96.2797 132.698 95.973 128.987C95.421 130.275 94.8077 131.701 94.133 133.265C93.4583 134.829 92.7837 136.393 92.109 137.957C91.465 139.521 90.8363 141.024 90.223 142.465C89.6097 143.876 89.0883 145.087 88.659 146.099H83.645C83.2157 145.087 82.6943 143.876 82.081 142.465C81.4677 141.024 80.8237 139.521 80.149 137.957C79.505 136.393 78.8457 134.829 78.171 133.265C77.4963 131.701 76.883 130.275 76.331 128.987C76.0243 132.698 75.7943 136.378 75.641 140.027C75.4877 143.676 75.365 147.05 75.273 150.147H68.281C68.4037 147.632 68.5417 144.949 68.695 142.097C68.879 139.245 69.063 136.408 69.247 133.587C69.4617 130.735 69.6917 128.006 69.937 125.399C70.213 122.762 70.5043 120.385 70.811 118.269H77.665Z" fill="#C4CFDD"/>
<path opacity="0.419638" d="M59.0458 33.365C59.3538 33.897 59.6968 34.548 60.0748 35.318C60.4528 36.088 60.8378 36.9 61.2298 37.754C61.6218 38.594 62.0068 39.455 62.3848 40.337C62.7768 41.205 63.1338 42.01 63.4558 42.752C63.7778 42.01 64.1278 41.205 64.5058 40.337C64.8838 39.455 65.2688 38.594 65.6608 37.754C66.0528 36.9 66.4378 36.088 66.8158 35.318C67.1938 34.548 67.5368 33.897 67.8448 33.365H70.2388C70.3648 34.429 70.4838 35.563 70.5958 36.767C70.7078 37.957 70.8058 39.182 70.8898 40.442C70.9878 41.688 71.0718 42.948 71.1418 44.222C71.2258 45.482 71.2958 46.714 71.3518 47.918H68.7478C68.6918 46.224 68.6218 44.481 68.5378 42.689C68.4678 40.897 68.3558 39.161 68.2018 37.481C68.0478 37.803 67.8658 38.188 67.6558 38.636C67.4458 39.084 67.2218 39.574 66.9838 40.106C66.7458 40.624 66.5008 41.163 66.2488 41.723C66.0108 42.283 65.7728 42.829 65.5348 43.361C65.3108 43.879 65.1008 44.369 64.9048 44.831C64.7088 45.279 64.5408 45.664 64.4008 45.986H62.4268C62.2868 45.664 62.1188 45.272 61.9228 44.81C61.7268 44.348 61.5098 43.858 61.2718 43.34C61.0478 42.808 60.8098 42.262 60.5578 41.702C60.3198 41.142 60.0818 40.603 59.8438 40.085C59.6058 39.567 59.3818 39.084 59.1718 38.636C58.9618 38.174 58.7798 37.789 58.6258 37.481C58.4718 39.161 58.3528 40.897 58.2688 42.689C58.1988 44.481 58.1358 46.224 58.0798 47.918H55.4758C55.5318 46.714 55.5948 45.468 55.6648 44.18C55.7488 42.892 55.8328 41.618 55.9168 40.358C56.0148 39.084 56.1198 37.852 56.2318 36.662C56.3438 35.472 56.4628 34.373 56.5888 33.365H59.0458ZM83.2964 47.918V33.365H92.6414V35.612H85.9424V39.203H91.9064V41.408H85.9424V45.671H93.1454V47.918H83.2964ZM107.109 45.734C107.263 45.748 107.466 45.762 107.718 45.776C107.97 45.776 108.313 45.776 108.747 45.776C110.525 45.776 111.848 45.328 112.716 44.432C113.598 43.522 114.039 42.255 114.039 40.631C114.039 38.979 113.612 37.712 112.758 36.83C111.904 35.948 110.581 35.507 108.789 35.507C108.005 35.507 107.445 35.528 107.109 35.57V45.734ZM116.811 40.631C116.811 41.891 116.615 42.99 116.223 43.928C115.831 44.852 115.271 45.629 114.543 46.259C113.829 46.875 112.961 47.337 111.939 47.645C110.931 47.939 109.811 48.086 108.579 48.086C107.991 48.086 107.326 48.058 106.584 48.002C105.842 47.96 105.135 47.862 104.463 47.708V33.575C105.135 33.421 105.849 33.323 106.605 33.281C107.361 33.239 108.033 33.218 108.621 33.218C109.839 33.218 110.952 33.365 111.96 33.659C112.968 33.939 113.829 34.387 114.543 35.003C115.271 35.605 115.831 36.375 116.223 37.313C116.615 38.237 116.811 39.343 116.811 40.631ZM55.8748 57.365H58.5208V71.918H55.8748V57.365ZM80.5286 71.918C80.3326 71.344 80.1296 70.777 79.9196 70.217C79.7096 69.657 79.5066 69.083 79.3106 68.495H73.1786C72.9826 69.083 72.7796 69.664 72.5696 70.238C72.3736 70.798 72.1776 71.358 71.9816 71.918H69.2306C69.7766 70.364 70.2946 68.929 70.7846 67.613C71.2746 66.297 71.7506 65.051 72.2126 63.875C72.6886 62.699 73.1576 61.579 73.6196 60.515C74.0816 59.451 74.5576 58.401 75.0476 57.365H77.5466C78.0366 58.401 78.5126 59.451 78.9746 60.515C79.4366 61.579 79.8986 62.699 80.3606 63.875C80.8366 65.051 81.3196 66.297 81.8096 67.613C82.3136 68.929 82.8386 70.364 83.3846 71.918H80.5286ZM76.2446 60.179C75.9226 60.921 75.5516 61.824 75.1316 62.888C74.7256 63.952 74.2986 65.107 73.8506 66.353H78.6386C78.1906 65.107 77.7566 63.945 77.3366 62.867C76.9166 61.789 76.5526 60.893 76.2446 60.179Z" fill="white"/>
<path fill-rule="evenodd" clip-rule="evenodd" d="M24.6857 43.3719C35.8183 43.3719 44.8431 34.2424 44.8431 22.9806C44.8431 11.7188 35.8183 2.58936 24.6857 2.58936C13.5531 2.58936 4.52832 11.7188 4.52832 22.9806C4.52832 23.1039 4.5294 23.2268 4.53155 23.3496C7.21807 23.3684 10.706 23.5672 10.706 23.5672C12.5709 23.5672 13.1712 22.5135 13.8944 21.244C14.2961 20.539 14.7357 19.7674 15.4509 19.0727C17.4703 17.1108 21.3341 12.6652 22.0948 9.15981C22.5983 6.81202 24.76 7.87722 25.5152 9.13263C26.651 11.0075 25.5518 13.317 24.5583 15.4043C24.4747 15.5799 24.3919 15.7539 24.3112 15.926C23.4137 17.8336 23.5505 19.9966 25.953 19.7194C26.9487 19.6054 27.7405 19.5036 28.4511 19.4122C29.8065 19.238 30.8663 19.1017 32.482 18.9912C34.9721 18.8227 35.7547 19.8335 35.7547 20.7737C35.7547 21.7101 35.5606 22.1118 35.4121 22.419C35.3202 22.6092 35.2457 22.7633 35.2457 22.9857C35.2457 23.1925 35.4874 23.2783 35.7988 23.3889C36.3629 23.5892 37.1557 23.8707 37.1557 25.0997C37.1557 26.3478 36.5161 26.7537 36.0739 27.0344C35.8402 27.1827 35.6617 27.296 35.6617 27.4801C35.6617 27.6779 35.8623 27.8352 36.1147 28.033C36.542 28.3679 37.1174 28.8189 37.1174 29.779C37.1174 30.7088 36.3912 31.147 35.823 31.4899C35.458 31.7102 35.1582 31.8911 35.1582 32.1377C35.1582 32.421 35.2864 32.61 35.4276 32.818C35.6006 33.0728 35.793 33.3562 35.793 33.8768C35.793 34.8224 33.8064 36.8985 26.8013 36.8985C19.71 36.8985 17.3301 35.8971 15.3981 35.0843C14.0782 34.5289 12.9674 34.0615 10.706 34.0615C10.706 34.0615 9.27854 34 7.64145 33.8721C11.2139 39.5812 17.5122 43.3719 24.6857 43.3719Z" fill="#C4CFDD"/>
</g>
<defs>
<clipPath id="clip0_0_1964">
<rect width="126" height="46.7708" fill="white" transform="translate(0 0.146973)"/>
</clipPath>
</defs>
</svg>
